<mxfile host="Electron" modified="2025-05-14T13:01:05.292Z" agent="Mozilla/5.0 (Windows NT 10.0; Win64; x64) AppleWebKit/537.36 (KHTML, like Gecko) draw.io/22.0.3 Chrome/114.0.5735.289 Electron/25.8.4 Safari/537.36" etag="H9tatLvB3tP8MJbTr3Su" version="22.0.3" type="device">
  <diagram name="PÃ¡gina-1" id="5NMcBoD9xluHxUGKGJME">
    <mxGraphModel dx="1415" dy="1404" grid="1" gridSize="10" guides="1" tooltips="1" connect="1" arrows="1" fold="1" page="1" pageScale="1" pageWidth="583" pageHeight="827" math="0" shadow="0">
      <root>
        <mxCell id="0" />
        <mxCell id="1" parent="0" />
        <mxCell id="fhPOaMHas8F5NW810UET-1" value="Personagem" style="whiteSpace=wrap;html=1;align=center;" vertex="1" parent="1">
          <mxGeometry x="242" y="60" width="100" height="40" as="geometry" />
        </mxCell>
        <mxCell id="fhPOaMHas8F5NW810UET-3" value="idCharacter (PK)" style="ellipse;whiteSpace=wrap;html=1;align=center;" vertex="1" parent="1">
          <mxGeometry x="52" y="60" width="100" height="40" as="geometry" />
        </mxCell>
        <mxCell id="fhPOaMHas8F5NW810UET-4" value="tipo" style="ellipse;whiteSpace=wrap;html=1;align=center;" vertex="1" parent="1">
          <mxGeometry x="312" y="194" width="100" height="40" as="geometry" />
        </mxCell>
        <mxCell id="fhPOaMHas8F5NW810UET-5" value="nome" style="ellipse;whiteSpace=wrap;html=1;align=center;" vertex="1" parent="1">
          <mxGeometry x="102" y="130" width="100" height="40" as="geometry" />
        </mxCell>
        <mxCell id="fhPOaMHas8F5NW810UET-6" value="idade" style="ellipse;whiteSpace=wrap;html=1;align=center;" vertex="1" parent="1">
          <mxGeometry x="172" y="194" width="100" height="40" as="geometry" />
        </mxCell>
        <mxCell id="fhPOaMHas8F5NW810UET-7" value="resumo" style="ellipse;whiteSpace=wrap;html=1;align=center;" vertex="1" parent="1">
          <mxGeometry x="382" y="130" width="100" height="40" as="geometry" />
        </mxCell>
        <mxCell id="fhPOaMHas8F5NW810UET-8" value="status" style="ellipse;whiteSpace=wrap;html=1;align=center;" vertex="1" parent="1">
          <mxGeometry x="432" y="60" width="100" height="40" as="geometry" />
        </mxCell>
        <mxCell id="fhPOaMHas8F5NW810UET-11" value="" style="endArrow=none;html=1;rounded=0;" edge="1" parent="1" source="fhPOaMHas8F5NW810UET-3" target="fhPOaMHas8F5NW810UET-1">
          <mxGeometry relative="1" as="geometry">
            <mxPoint x="202" y="200" as="sourcePoint" />
            <mxPoint x="362" y="200" as="targetPoint" />
          </mxGeometry>
        </mxCell>
        <mxCell id="fhPOaMHas8F5NW810UET-13" value="" style="endArrow=none;html=1;rounded=0;" edge="1" parent="1" source="fhPOaMHas8F5NW810UET-5" target="fhPOaMHas8F5NW810UET-1">
          <mxGeometry relative="1" as="geometry">
            <mxPoint x="162" y="90" as="sourcePoint" />
            <mxPoint x="252" y="90" as="targetPoint" />
          </mxGeometry>
        </mxCell>
        <mxCell id="fhPOaMHas8F5NW810UET-14" value="" style="endArrow=none;html=1;rounded=0;" edge="1" parent="1" source="fhPOaMHas8F5NW810UET-7" target="fhPOaMHas8F5NW810UET-1">
          <mxGeometry relative="1" as="geometry">
            <mxPoint x="172" y="100" as="sourcePoint" />
            <mxPoint x="262" y="100" as="targetPoint" />
          </mxGeometry>
        </mxCell>
        <mxCell id="fhPOaMHas8F5NW810UET-15" value="" style="endArrow=none;html=1;rounded=0;" edge="1" parent="1" source="fhPOaMHas8F5NW810UET-6" target="fhPOaMHas8F5NW810UET-1">
          <mxGeometry relative="1" as="geometry">
            <mxPoint x="182" y="110" as="sourcePoint" />
            <mxPoint x="272" y="110" as="targetPoint" />
          </mxGeometry>
        </mxCell>
        <mxCell id="fhPOaMHas8F5NW810UET-16" value="" style="endArrow=none;html=1;rounded=0;" edge="1" parent="1" source="fhPOaMHas8F5NW810UET-4" target="fhPOaMHas8F5NW810UET-1">
          <mxGeometry relative="1" as="geometry">
            <mxPoint x="192" y="120" as="sourcePoint" />
            <mxPoint x="282" y="120" as="targetPoint" />
          </mxGeometry>
        </mxCell>
        <mxCell id="fhPOaMHas8F5NW810UET-17" value="" style="endArrow=none;html=1;rounded=0;" edge="1" parent="1" source="fhPOaMHas8F5NW810UET-8" target="fhPOaMHas8F5NW810UET-1">
          <mxGeometry relative="1" as="geometry">
            <mxPoint x="202" y="130" as="sourcePoint" />
            <mxPoint x="292" y="130" as="targetPoint" />
          </mxGeometry>
        </mxCell>
        <mxCell id="fhPOaMHas8F5NW810UET-18" value="Proficiencia" style="whiteSpace=wrap;html=1;align=center;" vertex="1" parent="1">
          <mxGeometry x="241.5" y="473" width="100" height="40" as="geometry" />
        </mxCell>
        <mxCell id="fhPOaMHas8F5NW810UET-19" value="Cenario" style="whiteSpace=wrap;html=1;align=center;" vertex="1" parent="1">
          <mxGeometry x="251.5" y="700" width="100" height="40" as="geometry" />
        </mxCell>
        <mxCell id="fhPOaMHas8F5NW810UET-20" value="Musica" style="whiteSpace=wrap;html=1;align=center;" vertex="1" parent="1">
          <mxGeometry x="251.5" y="930" width="100" height="40" as="geometry" />
        </mxCell>
        <mxCell id="fhPOaMHas8F5NW810UET-21" value="Evento" style="whiteSpace=wrap;html=1;align=center;" vertex="1" parent="1">
          <mxGeometry x="825" y="50" width="100" height="40" as="geometry" />
        </mxCell>
        <mxCell id="fhPOaMHas8F5NW810UET-22" value="Dialogo" style="whiteSpace=wrap;html=1;align=center;" vertex="1" parent="1">
          <mxGeometry x="825" y="339" width="100" height="40" as="geometry" />
        </mxCell>
        <mxCell id="fhPOaMHas8F5NW810UET-23" value="Iventario" style="whiteSpace=wrap;html=1;align=center;" vertex="1" parent="1">
          <mxGeometry x="833" y="650" width="100" height="40" as="geometry" />
        </mxCell>
        <mxCell id="fhPOaMHas8F5NW810UET-24" value="Item" style="whiteSpace=wrap;html=1;align=center;" vertex="1" parent="1">
          <mxGeometry x="832" y="950" width="100" height="40" as="geometry" />
        </mxCell>
        <mxCell id="fhPOaMHas8F5NW810UET-25" value="idRecord (PK)" style="ellipse;whiteSpace=wrap;html=1;align=center;" vertex="1" parent="1">
          <mxGeometry x="81.5" y="416" width="100" height="40" as="geometry" />
        </mxCell>
        <mxCell id="fhPOaMHas8F5NW810UET-26" value="idCharacter (FK)" style="ellipse;whiteSpace=wrap;html=1;align=center;" vertex="1" parent="1">
          <mxGeometry x="41.5" y="483" width="100" height="40" as="geometry" />
        </mxCell>
        <mxCell id="fhPOaMHas8F5NW810UET-27" value="for" style="ellipse;whiteSpace=wrap;html=1;align=center;" vertex="1" parent="1">
          <mxGeometry x="101.5" y="553" width="100" height="40" as="geometry" />
        </mxCell>
        <mxCell id="fhPOaMHas8F5NW810UET-28" value="cons" style="ellipse;whiteSpace=wrap;html=1;align=center;" vertex="1" parent="1">
          <mxGeometry x="181.5" y="603" width="100" height="40" as="geometry" />
        </mxCell>
        <mxCell id="fhPOaMHas8F5NW810UET-29" value="inte" style="ellipse;whiteSpace=wrap;html=1;align=center;" vertex="1" parent="1">
          <mxGeometry x="411.5" y="413" width="100" height="40" as="geometry" />
        </mxCell>
        <mxCell id="fhPOaMHas8F5NW810UET-30" value="sab" style="ellipse;whiteSpace=wrap;html=1;align=center;" vertex="1" parent="1">
          <mxGeometry x="461.5" y="483" width="100" height="40" as="geometry" />
        </mxCell>
        <mxCell id="fhPOaMHas8F5NW810UET-31" value="car" style="ellipse;whiteSpace=wrap;html=1;align=center;" vertex="1" parent="1">
          <mxGeometry x="391.5" y="553" width="100" height="40" as="geometry" />
        </mxCell>
        <mxCell id="fhPOaMHas8F5NW810UET-32" value="des" style="ellipse;whiteSpace=wrap;html=1;align=center;" vertex="1" parent="1">
          <mxGeometry x="301.5" y="603" width="100" height="40" as="geometry" />
        </mxCell>
        <mxCell id="fhPOaMHas8F5NW810UET-33" value="" style="endArrow=none;html=1;rounded=0;" edge="1" parent="1" source="fhPOaMHas8F5NW810UET-25" target="fhPOaMHas8F5NW810UET-18">
          <mxGeometry relative="1" as="geometry">
            <mxPoint x="241.5" y="297" as="sourcePoint" />
            <mxPoint x="291.5" y="203" as="targetPoint" />
          </mxGeometry>
        </mxCell>
        <mxCell id="fhPOaMHas8F5NW810UET-34" value="" style="endArrow=none;html=1;rounded=0;" edge="1" parent="1" source="fhPOaMHas8F5NW810UET-27" target="fhPOaMHas8F5NW810UET-18">
          <mxGeometry relative="1" as="geometry">
            <mxPoint x="179.5" y="459" as="sourcePoint" />
            <mxPoint x="251.5" y="485" as="targetPoint" />
          </mxGeometry>
        </mxCell>
        <mxCell id="fhPOaMHas8F5NW810UET-35" value="" style="endArrow=none;html=1;rounded=0;" edge="1" parent="1" source="fhPOaMHas8F5NW810UET-28" target="fhPOaMHas8F5NW810UET-18">
          <mxGeometry relative="1" as="geometry">
            <mxPoint x="189.5" y="469" as="sourcePoint" />
            <mxPoint x="261.5" y="495" as="targetPoint" />
          </mxGeometry>
        </mxCell>
        <mxCell id="fhPOaMHas8F5NW810UET-36" value="" style="endArrow=none;html=1;rounded=0;" edge="1" parent="1" source="fhPOaMHas8F5NW810UET-32" target="fhPOaMHas8F5NW810UET-18">
          <mxGeometry relative="1" as="geometry">
            <mxPoint x="199.5" y="479" as="sourcePoint" />
            <mxPoint x="271.5" y="505" as="targetPoint" />
          </mxGeometry>
        </mxCell>
        <mxCell id="fhPOaMHas8F5NW810UET-37" value="" style="endArrow=none;html=1;rounded=0;" edge="1" parent="1" source="fhPOaMHas8F5NW810UET-31" target="fhPOaMHas8F5NW810UET-18">
          <mxGeometry relative="1" as="geometry">
            <mxPoint x="209.5" y="489" as="sourcePoint" />
            <mxPoint x="281.5" y="515" as="targetPoint" />
          </mxGeometry>
        </mxCell>
        <mxCell id="fhPOaMHas8F5NW810UET-38" value="" style="endArrow=none;html=1;rounded=0;" edge="1" parent="1" source="fhPOaMHas8F5NW810UET-30" target="fhPOaMHas8F5NW810UET-18">
          <mxGeometry relative="1" as="geometry">
            <mxPoint x="219.5" y="499" as="sourcePoint" />
            <mxPoint x="291.5" y="525" as="targetPoint" />
          </mxGeometry>
        </mxCell>
        <mxCell id="fhPOaMHas8F5NW810UET-39" value="" style="endArrow=none;html=1;rounded=0;" edge="1" parent="1" source="fhPOaMHas8F5NW810UET-29" target="fhPOaMHas8F5NW810UET-18">
          <mxGeometry relative="1" as="geometry">
            <mxPoint x="229.5" y="509" as="sourcePoint" />
            <mxPoint x="301.5" y="535" as="targetPoint" />
          </mxGeometry>
        </mxCell>
        <mxCell id="fhPOaMHas8F5NW810UET-40" value="" style="endArrow=none;html=1;rounded=0;" edge="1" parent="1" source="fhPOaMHas8F5NW810UET-26" target="fhPOaMHas8F5NW810UET-18">
          <mxGeometry relative="1" as="geometry">
            <mxPoint x="239.5" y="519" as="sourcePoint" />
            <mxPoint x="311.5" y="545" as="targetPoint" />
          </mxGeometry>
        </mxCell>
        <mxCell id="fhPOaMHas8F5NW810UET-41" value="idScenario (PK)" style="ellipse;whiteSpace=wrap;html=1;align=center;" vertex="1" parent="1">
          <mxGeometry x="91.5" y="700" width="100" height="40" as="geometry" />
        </mxCell>
        <mxCell id="fhPOaMHas8F5NW810UET-42" value="descricao" style="ellipse;whiteSpace=wrap;html=1;align=center;" vertex="1" parent="1">
          <mxGeometry x="411.5" y="700" width="100" height="40" as="geometry" />
        </mxCell>
        <mxCell id="fhPOaMHas8F5NW810UET-43" value="nome" style="ellipse;whiteSpace=wrap;html=1;align=center;" vertex="1" parent="1">
          <mxGeometry x="251.5" y="800" width="100" height="40" as="geometry" />
        </mxCell>
        <mxCell id="fhPOaMHas8F5NW810UET-44" value="" style="endArrow=none;html=1;rounded=0;" edge="1" parent="1" source="fhPOaMHas8F5NW810UET-41" target="fhPOaMHas8F5NW810UET-19">
          <mxGeometry relative="1" as="geometry">
            <mxPoint x="260.5" y="560" as="sourcePoint" />
            <mxPoint x="302.5" y="470" as="targetPoint" />
          </mxGeometry>
        </mxCell>
        <mxCell id="fhPOaMHas8F5NW810UET-45" value="" style="endArrow=none;html=1;rounded=0;" edge="1" parent="1" source="fhPOaMHas8F5NW810UET-43" target="fhPOaMHas8F5NW810UET-19">
          <mxGeometry relative="1" as="geometry">
            <mxPoint x="270.5" y="570" as="sourcePoint" />
            <mxPoint x="312.5" y="480" as="targetPoint" />
          </mxGeometry>
        </mxCell>
        <mxCell id="fhPOaMHas8F5NW810UET-46" value="" style="endArrow=none;html=1;rounded=0;" edge="1" parent="1" source="fhPOaMHas8F5NW810UET-42" target="fhPOaMHas8F5NW810UET-19">
          <mxGeometry relative="1" as="geometry">
            <mxPoint x="280.5" y="580" as="sourcePoint" />
            <mxPoint x="322.5" y="490" as="targetPoint" />
          </mxGeometry>
        </mxCell>
        <mxCell id="fhPOaMHas8F5NW810UET-47" value="duracao" style="ellipse;whiteSpace=wrap;html=1;align=center;" vertex="1" parent="1">
          <mxGeometry x="171.5" y="1010" width="100" height="40" as="geometry" />
        </mxCell>
        <mxCell id="fhPOaMHas8F5NW810UET-48" value="tema" style="ellipse;whiteSpace=wrap;html=1;align=center;" vertex="1" parent="1">
          <mxGeometry x="326.5" y="1010" width="100" height="40" as="geometry" />
        </mxCell>
        <mxCell id="fhPOaMHas8F5NW810UET-49" value="idScenario (FK)" style="ellipse;whiteSpace=wrap;html=1;align=center;" vertex="1" parent="1">
          <mxGeometry x="401.5" y="930" width="100" height="40" as="geometry" />
        </mxCell>
        <mxCell id="fhPOaMHas8F5NW810UET-50" value="idMusic (PK)" style="ellipse;whiteSpace=wrap;html=1;align=center;" vertex="1" parent="1">
          <mxGeometry x="101.5" y="930" width="100" height="40" as="geometry" />
        </mxCell>
        <mxCell id="fhPOaMHas8F5NW810UET-51" value="" style="endArrow=none;html=1;rounded=0;" edge="1" parent="1" source="fhPOaMHas8F5NW810UET-20" target="fhPOaMHas8F5NW810UET-50">
          <mxGeometry relative="1" as="geometry">
            <mxPoint x="291.5" y="1100" as="sourcePoint" />
            <mxPoint x="201.5" y="1100" as="targetPoint" />
          </mxGeometry>
        </mxCell>
        <mxCell id="fhPOaMHas8F5NW810UET-52" value="" style="endArrow=none;html=1;rounded=0;" edge="1" parent="1" source="fhPOaMHas8F5NW810UET-20" target="fhPOaMHas8F5NW810UET-47">
          <mxGeometry relative="1" as="geometry">
            <mxPoint x="301.5" y="1110" as="sourcePoint" />
            <mxPoint x="211.5" y="1110" as="targetPoint" />
          </mxGeometry>
        </mxCell>
        <mxCell id="fhPOaMHas8F5NW810UET-53" value="" style="endArrow=none;html=1;rounded=0;" edge="1" parent="1" source="fhPOaMHas8F5NW810UET-20" target="fhPOaMHas8F5NW810UET-48">
          <mxGeometry relative="1" as="geometry">
            <mxPoint x="311.5" y="1120" as="sourcePoint" />
            <mxPoint x="221.5" y="1120" as="targetPoint" />
          </mxGeometry>
        </mxCell>
        <mxCell id="fhPOaMHas8F5NW810UET-54" value="" style="endArrow=none;html=1;rounded=0;" edge="1" parent="1" source="fhPOaMHas8F5NW810UET-20" target="fhPOaMHas8F5NW810UET-49">
          <mxGeometry relative="1" as="geometry">
            <mxPoint x="321.5" y="1130" as="sourcePoint" />
            <mxPoint x="231.5" y="1130" as="targetPoint" />
          </mxGeometry>
        </mxCell>
        <mxCell id="fhPOaMHas8F5NW810UET-55" value="idEvent (PK)" style="ellipse;whiteSpace=wrap;html=1;align=center;" vertex="1" parent="1">
          <mxGeometry x="635" y="50" width="100" height="40" as="geometry" />
        </mxCell>
        <mxCell id="fhPOaMHas8F5NW810UET-56" value="tipo" style="ellipse;whiteSpace=wrap;html=1;align=center;" vertex="1" parent="1">
          <mxGeometry x="895" y="184" width="100" height="40" as="geometry" />
        </mxCell>
        <mxCell id="fhPOaMHas8F5NW810UET-57" value="nome" style="ellipse;whiteSpace=wrap;html=1;align=center;" vertex="1" parent="1">
          <mxGeometry x="685" y="120" width="100" height="40" as="geometry" />
        </mxCell>
        <mxCell id="fhPOaMHas8F5NW810UET-58" value="descricao" style="ellipse;whiteSpace=wrap;html=1;align=center;" vertex="1" parent="1">
          <mxGeometry x="755" y="184" width="100" height="40" as="geometry" />
        </mxCell>
        <mxCell id="fhPOaMHas8F5NW810UET-59" value="condicao" style="ellipse;whiteSpace=wrap;html=1;align=center;" vertex="1" parent="1">
          <mxGeometry x="965" y="120" width="100" height="40" as="geometry" />
        </mxCell>
        <mxCell id="fhPOaMHas8F5NW810UET-60" value="status" style="ellipse;whiteSpace=wrap;html=1;align=center;" vertex="1" parent="1">
          <mxGeometry x="1015" y="50" width="100" height="40" as="geometry" />
        </mxCell>
        <mxCell id="fhPOaMHas8F5NW810UET-61" value="" style="endArrow=none;html=1;rounded=0;" edge="1" parent="1" source="fhPOaMHas8F5NW810UET-55" target="fhPOaMHas8F5NW810UET-21">
          <mxGeometry relative="1" as="geometry">
            <mxPoint x="785" y="190" as="sourcePoint" />
            <mxPoint x="825" y="70" as="targetPoint" />
          </mxGeometry>
        </mxCell>
        <mxCell id="fhPOaMHas8F5NW810UET-62" value="" style="endArrow=none;html=1;rounded=0;" edge="1" parent="1" source="fhPOaMHas8F5NW810UET-57" target="fhPOaMHas8F5NW810UET-21">
          <mxGeometry relative="1" as="geometry">
            <mxPoint x="745" y="80" as="sourcePoint" />
            <mxPoint x="835" y="90" as="targetPoint" />
          </mxGeometry>
        </mxCell>
        <mxCell id="fhPOaMHas8F5NW810UET-63" value="" style="endArrow=none;html=1;rounded=0;" edge="1" parent="1" source="fhPOaMHas8F5NW810UET-59" target="fhPOaMHas8F5NW810UET-21">
          <mxGeometry relative="1" as="geometry">
            <mxPoint x="755" y="90" as="sourcePoint" />
            <mxPoint x="915" y="90" as="targetPoint" />
          </mxGeometry>
        </mxCell>
        <mxCell id="fhPOaMHas8F5NW810UET-64" value="" style="endArrow=none;html=1;rounded=0;" edge="1" parent="1" source="fhPOaMHas8F5NW810UET-58" target="fhPOaMHas8F5NW810UET-21">
          <mxGeometry relative="1" as="geometry">
            <mxPoint x="765" y="100" as="sourcePoint" />
            <mxPoint x="865" y="90" as="targetPoint" />
          </mxGeometry>
        </mxCell>
        <mxCell id="fhPOaMHas8F5NW810UET-65" value="" style="endArrow=none;html=1;rounded=0;" edge="1" parent="1" source="fhPOaMHas8F5NW810UET-56" target="fhPOaMHas8F5NW810UET-21">
          <mxGeometry relative="1" as="geometry">
            <mxPoint x="775" y="110" as="sourcePoint" />
            <mxPoint x="885" y="90" as="targetPoint" />
          </mxGeometry>
        </mxCell>
        <mxCell id="fhPOaMHas8F5NW810UET-66" value="" style="endArrow=none;html=1;rounded=0;" edge="1" parent="1" source="fhPOaMHas8F5NW810UET-60" target="fhPOaMHas8F5NW810UET-21">
          <mxGeometry relative="1" as="geometry">
            <mxPoint x="785" y="120" as="sourcePoint" />
            <mxPoint x="925" y="70" as="targetPoint" />
          </mxGeometry>
        </mxCell>
        <mxCell id="fhPOaMHas8F5NW810UET-67" value="idEvent (FK)" style="ellipse;whiteSpace=wrap;html=1;align=center;" vertex="1" parent="1">
          <mxGeometry x="825" y="449" width="100" height="40" as="geometry" />
        </mxCell>
        <mxCell id="fhPOaMHas8F5NW810UET-68" value="idSpeech (PK)" style="ellipse;whiteSpace=wrap;html=1;align=center;" vertex="1" parent="1">
          <mxGeometry x="665" y="339" width="100" height="40" as="geometry" />
        </mxCell>
        <mxCell id="fhPOaMHas8F5NW810UET-69" value="condicao" style="ellipse;whiteSpace=wrap;html=1;align=center;" vertex="1" parent="1">
          <mxGeometry x="985" y="339" width="100" height="40" as="geometry" />
        </mxCell>
        <mxCell id="fhPOaMHas8F5NW810UET-70" value="texto" style="ellipse;whiteSpace=wrap;html=1;align=center;" vertex="1" parent="1">
          <mxGeometry x="935" y="399" width="100" height="40" as="geometry" />
        </mxCell>
        <mxCell id="fhPOaMHas8F5NW810UET-71" value="idCharacter (FK)" style="ellipse;whiteSpace=wrap;html=1;align=center;" vertex="1" parent="1">
          <mxGeometry x="715" y="399" width="100" height="40" as="geometry" />
        </mxCell>
        <mxCell id="fhPOaMHas8F5NW810UET-72" value="" style="endArrow=none;html=1;rounded=0;" edge="1" parent="1" source="fhPOaMHas8F5NW810UET-68" target="fhPOaMHas8F5NW810UET-22">
          <mxGeometry relative="1" as="geometry">
            <mxPoint x="855" y="153" as="sourcePoint" />
            <mxPoint x="905" y="59" as="targetPoint" />
          </mxGeometry>
        </mxCell>
        <mxCell id="fhPOaMHas8F5NW810UET-73" value="" style="endArrow=none;html=1;rounded=0;" edge="1" parent="1" source="fhPOaMHas8F5NW810UET-71" target="fhPOaMHas8F5NW810UET-22">
          <mxGeometry relative="1" as="geometry">
            <mxPoint x="775" y="369" as="sourcePoint" />
            <mxPoint x="835" y="369" as="targetPoint" />
          </mxGeometry>
        </mxCell>
        <mxCell id="fhPOaMHas8F5NW810UET-74" value="" style="endArrow=none;html=1;rounded=0;" edge="1" parent="1" source="fhPOaMHas8F5NW810UET-67" target="fhPOaMHas8F5NW810UET-22">
          <mxGeometry relative="1" as="geometry">
            <mxPoint x="785" y="379" as="sourcePoint" />
            <mxPoint x="845" y="379" as="targetPoint" />
          </mxGeometry>
        </mxCell>
        <mxCell id="fhPOaMHas8F5NW810UET-75" value="" style="endArrow=none;html=1;rounded=0;" edge="1" parent="1" source="fhPOaMHas8F5NW810UET-70" target="fhPOaMHas8F5NW810UET-22">
          <mxGeometry relative="1" as="geometry">
            <mxPoint x="795" y="389" as="sourcePoint" />
            <mxPoint x="855" y="389" as="targetPoint" />
          </mxGeometry>
        </mxCell>
        <mxCell id="fhPOaMHas8F5NW810UET-76" value="" style="endArrow=none;html=1;rounded=0;" edge="1" parent="1" source="fhPOaMHas8F5NW810UET-69" target="fhPOaMHas8F5NW810UET-22">
          <mxGeometry relative="1" as="geometry">
            <mxPoint x="805" y="399" as="sourcePoint" />
            <mxPoint x="865" y="399" as="targetPoint" />
          </mxGeometry>
        </mxCell>
        <mxCell id="fhPOaMHas8F5NW810UET-78" value="descricao" style="ellipse;whiteSpace=wrap;html=1;align=center;" vertex="1" parent="1">
          <mxGeometry x="832" y="1060" width="100" height="40" as="geometry" />
        </mxCell>
        <mxCell id="fhPOaMHas8F5NW810UET-79" value="idItem (PK)" style="ellipse;whiteSpace=wrap;html=1;align=center;" vertex="1" parent="1">
          <mxGeometry x="672" y="950" width="100" height="40" as="geometry" />
        </mxCell>
        <mxCell id="fhPOaMHas8F5NW810UET-80" value="consumivel" style="ellipse;whiteSpace=wrap;html=1;align=center;" vertex="1" parent="1">
          <mxGeometry x="992" y="950" width="100" height="40" as="geometry" />
        </mxCell>
        <mxCell id="fhPOaMHas8F5NW810UET-81" value="efeito" style="ellipse;whiteSpace=wrap;html=1;align=center;" vertex="1" parent="1">
          <mxGeometry x="942" y="1010" width="100" height="40" as="geometry" />
        </mxCell>
        <mxCell id="fhPOaMHas8F5NW810UET-82" value="nome" style="ellipse;whiteSpace=wrap;html=1;align=center;" vertex="1" parent="1">
          <mxGeometry x="722" y="1010" width="100" height="40" as="geometry" />
        </mxCell>
        <mxCell id="fhPOaMHas8F5NW810UET-83" value="" style="endArrow=none;html=1;rounded=0;" edge="1" parent="1" source="fhPOaMHas8F5NW810UET-79" target="fhPOaMHas8F5NW810UET-24">
          <mxGeometry relative="1" as="geometry">
            <mxPoint x="862" y="764" as="sourcePoint" />
            <mxPoint x="832" y="970" as="targetPoint" />
          </mxGeometry>
        </mxCell>
        <mxCell id="fhPOaMHas8F5NW810UET-84" value="" style="endArrow=none;html=1;rounded=0;" edge="1" parent="1" source="fhPOaMHas8F5NW810UET-82" target="fhPOaMHas8F5NW810UET-24">
          <mxGeometry relative="1" as="geometry">
            <mxPoint x="782" y="980" as="sourcePoint" />
            <mxPoint x="845" y="990" as="targetPoint" />
          </mxGeometry>
        </mxCell>
        <mxCell id="fhPOaMHas8F5NW810UET-85" value="" style="endArrow=none;html=1;rounded=0;" edge="1" parent="1" source="fhPOaMHas8F5NW810UET-78" target="fhPOaMHas8F5NW810UET-24">
          <mxGeometry relative="1" as="geometry">
            <mxPoint x="792" y="990" as="sourcePoint" />
            <mxPoint x="882" y="990" as="targetPoint" />
          </mxGeometry>
        </mxCell>
        <mxCell id="fhPOaMHas8F5NW810UET-86" value="" style="endArrow=none;html=1;rounded=0;" edge="1" parent="1" source="fhPOaMHas8F5NW810UET-81" target="fhPOaMHas8F5NW810UET-24">
          <mxGeometry relative="1" as="geometry">
            <mxPoint x="802" y="1000" as="sourcePoint" />
            <mxPoint x="919" y="990" as="targetPoint" />
          </mxGeometry>
        </mxCell>
        <mxCell id="fhPOaMHas8F5NW810UET-87" value="" style="endArrow=none;html=1;rounded=0;" edge="1" parent="1" source="fhPOaMHas8F5NW810UET-80" target="fhPOaMHas8F5NW810UET-24">
          <mxGeometry relative="1" as="geometry">
            <mxPoint x="812" y="1010" as="sourcePoint" />
            <mxPoint x="932" y="970" as="targetPoint" />
          </mxGeometry>
        </mxCell>
        <mxCell id="fhPOaMHas8F5NW810UET-88" value="idIventory (PK)" style="ellipse;whiteSpace=wrap;html=1;align=center;" vertex="1" parent="1">
          <mxGeometry x="693" y="650" width="100" height="40" as="geometry" />
        </mxCell>
        <mxCell id="fhPOaMHas8F5NW810UET-89" value="idCharacter (FK)" style="ellipse;whiteSpace=wrap;html=1;align=center;" vertex="1" parent="1">
          <mxGeometry x="971" y="650" width="100" height="40" as="geometry" />
        </mxCell>
        <mxCell id="fhPOaMHas8F5NW810UET-90" value="idIventory (FK)" style="ellipse;whiteSpace=wrap;html=1;align=center;" vertex="1" parent="1">
          <mxGeometry x="971" y="740" width="100" height="40" as="geometry" />
        </mxCell>
        <mxCell id="fhPOaMHas8F5NW810UET-91" value="" style="endArrow=none;html=1;rounded=0;" edge="1" parent="1" source="fhPOaMHas8F5NW810UET-90" target="fhPOaMHas8F5NW810UET-94">
          <mxGeometry relative="1" as="geometry">
            <mxPoint x="1002" y="980" as="sourcePoint" />
            <mxPoint x="942" y="980" as="targetPoint" />
          </mxGeometry>
        </mxCell>
        <mxCell id="fhPOaMHas8F5NW810UET-92" value="" style="endArrow=none;html=1;rounded=0;" edge="1" parent="1" source="fhPOaMHas8F5NW810UET-23" target="fhPOaMHas8F5NW810UET-88">
          <mxGeometry relative="1" as="geometry">
            <mxPoint x="1013" y="180" as="sourcePoint" />
            <mxPoint x="953" y="180" as="targetPoint" />
          </mxGeometry>
        </mxCell>
        <mxCell id="fhPOaMHas8F5NW810UET-93" value="" style="endArrow=none;html=1;rounded=0;" edge="1" parent="1" source="fhPOaMHas8F5NW810UET-23" target="fhPOaMHas8F5NW810UET-89">
          <mxGeometry relative="1" as="geometry">
            <mxPoint x="1023" y="190" as="sourcePoint" />
            <mxPoint x="963" y="190" as="targetPoint" />
          </mxGeometry>
        </mxCell>
        <mxCell id="fhPOaMHas8F5NW810UET-94" value="Possui" style="shape=rhombus;perimeter=rhombusPerimeter;whiteSpace=wrap;html=1;align=center;" vertex="1" parent="1">
          <mxGeometry x="822" y="790" width="120" height="60" as="geometry" />
        </mxCell>
        <mxCell id="fhPOaMHas8F5NW810UET-95" value="Pertence" style="shape=rhombus;perimeter=rhombusPerimeter;whiteSpace=wrap;html=1;align=center;" vertex="1" parent="1">
          <mxGeometry x="1030" y="250" width="120" height="60" as="geometry" />
        </mxCell>
        <mxCell id="fhPOaMHas8F5NW810UET-96" value="Possui" style="shape=rhombus;perimeter=rhombusPerimeter;whiteSpace=wrap;html=1;align=center;" vertex="1" parent="1">
          <mxGeometry x="532" y="120" width="120" height="60" as="geometry" />
        </mxCell>
        <mxCell id="fhPOaMHas8F5NW810UET-97" value="Possui" style="shape=rhombus;perimeter=rhombusPerimeter;whiteSpace=wrap;html=1;align=center;" vertex="1" parent="1">
          <mxGeometry x="232" y="279" width="120" height="60" as="geometry" />
        </mxCell>
        <mxCell id="fhPOaMHas8F5NW810UET-98" value="Possui" style="shape=rhombus;perimeter=rhombusPerimeter;whiteSpace=wrap;html=1;align=center;" vertex="1" parent="1">
          <mxGeometry x="61.5" y="810" width="120" height="60" as="geometry" />
        </mxCell>
        <mxCell id="fhPOaMHas8F5NW810UET-99" value="" style="endArrow=none;html=1;rounded=0;" edge="1" parent="1" source="fhPOaMHas8F5NW810UET-95" target="fhPOaMHas8F5NW810UET-21">
          <mxGeometry relative="1" as="geometry">
            <mxPoint x="776" y="134" as="sourcePoint" />
            <mxPoint x="845" y="100" as="targetPoint" />
          </mxGeometry>
        </mxCell>
        <mxCell id="fhPOaMHas8F5NW810UET-101" value="&lt;font style=&quot;font-size: 16px;&quot;&gt;1&lt;/font&gt;" style="edgeLabel;html=1;align=center;verticalAlign=middle;resizable=0;points=[];labelBackgroundColor=none;spacingTop=15;" vertex="1" connectable="0" parent="fhPOaMHas8F5NW810UET-99">
          <mxGeometry x="-0.5791" y="4" relative="1" as="geometry">
            <mxPoint as="offset" />
          </mxGeometry>
        </mxCell>
        <mxCell id="fhPOaMHas8F5NW810UET-100" value="" style="endArrow=none;html=1;rounded=0;" edge="1" parent="1" source="fhPOaMHas8F5NW810UET-22" target="fhPOaMHas8F5NW810UET-95">
          <mxGeometry relative="1" as="geometry">
            <mxPoint x="786" y="144" as="sourcePoint" />
            <mxPoint x="855" y="110" as="targetPoint" />
          </mxGeometry>
        </mxCell>
        <mxCell id="fhPOaMHas8F5NW810UET-102" value="&lt;font style=&quot;font-size: 16px;&quot;&gt;M&lt;/font&gt;" style="edgeLabel;html=1;align=center;verticalAlign=middle;resizable=0;points=[];labelBackgroundColor=none;spacingTop=-21;" vertex="1" connectable="0" parent="fhPOaMHas8F5NW810UET-100">
          <mxGeometry x="-0.0952" y="2" relative="1" as="geometry">
            <mxPoint as="offset" />
          </mxGeometry>
        </mxCell>
        <mxCell id="fhPOaMHas8F5NW810UET-103" value="1" style="endArrow=none;html=1;rounded=0;labelBackgroundColor=none;fontSize=16;spacingTop=-20;" edge="1" parent="1" source="fhPOaMHas8F5NW810UET-96" target="fhPOaMHas8F5NW810UET-1">
          <mxGeometry x="0.0048" relative="1" as="geometry">
            <mxPoint x="411" y="144" as="sourcePoint" />
            <mxPoint x="342" y="110" as="targetPoint" />
            <mxPoint as="offset" />
          </mxGeometry>
        </mxCell>
        <mxCell id="fhPOaMHas8F5NW810UET-104" value="" style="endArrow=none;html=1;rounded=0;" edge="1" parent="1" source="fhPOaMHas8F5NW810UET-22" target="fhPOaMHas8F5NW810UET-96">
          <mxGeometry relative="1" as="geometry">
            <mxPoint x="421" y="154" as="sourcePoint" />
            <mxPoint x="352" y="120" as="targetPoint" />
          </mxGeometry>
        </mxCell>
        <mxCell id="fhPOaMHas8F5NW810UET-105" value="M" style="edgeLabel;html=1;align=center;verticalAlign=middle;resizable=0;points=[];fontSize=16;labelBackgroundColor=none;spacingTop=-27;" vertex="1" connectable="0" parent="fhPOaMHas8F5NW810UET-104">
          <mxGeometry x="-0.0003" relative="1" as="geometry">
            <mxPoint as="offset" />
          </mxGeometry>
        </mxCell>
        <mxCell id="fhPOaMHas8F5NW810UET-106" value="" style="endArrow=none;html=1;rounded=0;" edge="1" parent="1" source="fhPOaMHas8F5NW810UET-97" target="fhPOaMHas8F5NW810UET-1">
          <mxGeometry relative="1" as="geometry">
            <mxPoint x="242" y="204" as="sourcePoint" />
            <mxPoint x="292" y="110" as="targetPoint" />
          </mxGeometry>
        </mxCell>
        <mxCell id="fhPOaMHas8F5NW810UET-108" value="1" style="edgeLabel;html=1;align=center;verticalAlign=middle;resizable=0;points=[];fontSize=16;labelBackgroundColor=none;spacingRight=14;" vertex="1" connectable="0" parent="fhPOaMHas8F5NW810UET-106">
          <mxGeometry x="-0.6008" relative="1" as="geometry">
            <mxPoint y="1" as="offset" />
          </mxGeometry>
        </mxCell>
        <mxCell id="fhPOaMHas8F5NW810UET-107" value="" style="endArrow=none;html=1;rounded=0;" edge="1" parent="1" source="fhPOaMHas8F5NW810UET-18" target="fhPOaMHas8F5NW810UET-97">
          <mxGeometry relative="1" as="geometry">
            <mxPoint x="252" y="214" as="sourcePoint" />
            <mxPoint x="302" y="120" as="targetPoint" />
          </mxGeometry>
        </mxCell>
        <mxCell id="fhPOaMHas8F5NW810UET-109" value="1" style="edgeLabel;html=1;align=center;verticalAlign=middle;resizable=0;points=[];fontSize=16;labelBackgroundColor=none;spacingRight=14;" vertex="1" connectable="0" parent="fhPOaMHas8F5NW810UET-107">
          <mxGeometry x="0.0132" y="1" relative="1" as="geometry">
            <mxPoint y="-1" as="offset" />
          </mxGeometry>
        </mxCell>
        <mxCell id="fhPOaMHas8F5NW810UET-110" value="" style="endArrow=none;html=1;rounded=0;" edge="1" parent="1" source="fhPOaMHas8F5NW810UET-98" target="fhPOaMHas8F5NW810UET-19">
          <mxGeometry relative="1" as="geometry">
            <mxPoint x="250" y="613" as="sourcePoint" />
            <mxPoint x="292" y="523" as="targetPoint" />
          </mxGeometry>
        </mxCell>
        <mxCell id="fhPOaMHas8F5NW810UET-112" value="M" style="edgeLabel;html=1;align=center;verticalAlign=middle;resizable=0;points=[];fontSize=16;labelBackgroundColor=none;spacingBottom=-25;" vertex="1" connectable="0" parent="fhPOaMHas8F5NW810UET-110">
          <mxGeometry x="-0.0757" y="-1" relative="1" as="geometry">
            <mxPoint as="offset" />
          </mxGeometry>
        </mxCell>
        <mxCell id="fhPOaMHas8F5NW810UET-111" value="" style="endArrow=none;html=1;rounded=0;" edge="1" parent="1" source="fhPOaMHas8F5NW810UET-98" target="fhPOaMHas8F5NW810UET-20">
          <mxGeometry relative="1" as="geometry">
            <mxPoint x="260" y="623" as="sourcePoint" />
            <mxPoint x="302" y="533" as="targetPoint" />
          </mxGeometry>
        </mxCell>
        <mxCell id="fhPOaMHas8F5NW810UET-113" value="M" style="edgeLabel;html=1;align=center;verticalAlign=middle;resizable=0;points=[];fontSize=16;labelBackgroundColor=none;spacingBottom=34;" vertex="1" connectable="0" parent="fhPOaMHas8F5NW810UET-111">
          <mxGeometry x="-0.0591" y="-4" relative="1" as="geometry">
            <mxPoint x="1" as="offset" />
          </mxGeometry>
        </mxCell>
        <mxCell id="fhPOaMHas8F5NW810UET-114" value="" style="endArrow=none;html=1;rounded=0;" edge="1" parent="1" source="fhPOaMHas8F5NW810UET-24" target="fhPOaMHas8F5NW810UET-94">
          <mxGeometry relative="1" as="geometry">
            <mxPoint x="411" y="720" as="sourcePoint" />
            <mxPoint x="352" y="720" as="targetPoint" />
          </mxGeometry>
        </mxCell>
        <mxCell id="fhPOaMHas8F5NW810UET-122" value="M" style="edgeLabel;html=1;align=center;verticalAlign=middle;resizable=0;points=[];fontSize=16;labelBackgroundColor=none;spacingTop=1;spacingRight=19;" vertex="1" connectable="0" parent="fhPOaMHas8F5NW810UET-114">
          <mxGeometry x="0.1164" y="2" relative="1" as="geometry">
            <mxPoint y="1" as="offset" />
          </mxGeometry>
        </mxCell>
        <mxCell id="fhPOaMHas8F5NW810UET-115" value="" style="endArrow=none;html=1;rounded=0;" edge="1" parent="1" source="fhPOaMHas8F5NW810UET-94" target="fhPOaMHas8F5NW810UET-23">
          <mxGeometry relative="1" as="geometry">
            <mxPoint x="421" y="730" as="sourcePoint" />
            <mxPoint x="362" y="730" as="targetPoint" />
          </mxGeometry>
        </mxCell>
        <mxCell id="fhPOaMHas8F5NW810UET-121" value="1" style="edgeLabel;html=1;align=center;verticalAlign=middle;resizable=0;points=[];fontSize=16;spacingRight=10;labelBackgroundColor=none;" vertex="1" connectable="0" parent="fhPOaMHas8F5NW810UET-115">
          <mxGeometry x="-0.0648" y="3" relative="1" as="geometry">
            <mxPoint as="offset" />
          </mxGeometry>
        </mxCell>
        <mxCell id="fhPOaMHas8F5NW810UET-116" value="Possui" style="shape=rhombus;perimeter=rhombusPerimeter;whiteSpace=wrap;html=1;align=center;" vertex="1" parent="1">
          <mxGeometry x="520" y="319" width="120" height="60" as="geometry" />
        </mxCell>
        <mxCell id="fhPOaMHas8F5NW810UET-117" value="" style="endArrow=none;html=1;rounded=0;" edge="1" parent="1" source="fhPOaMHas8F5NW810UET-116" target="fhPOaMHas8F5NW810UET-1">
          <mxGeometry relative="1" as="geometry">
            <mxPoint x="892" y="800" as="sourcePoint" />
            <mxPoint x="893" y="700" as="targetPoint" />
          </mxGeometry>
        </mxCell>
        <mxCell id="fhPOaMHas8F5NW810UET-119" value="1" style="edgeLabel;html=1;align=center;verticalAlign=middle;resizable=0;points=[];fontSize=16;labelBackgroundColor=none;spacingTop=-33;" vertex="1" connectable="0" parent="fhPOaMHas8F5NW810UET-117">
          <mxGeometry x="-0.271" y="4" relative="1" as="geometry">
            <mxPoint x="-1" y="-1" as="offset" />
          </mxGeometry>
        </mxCell>
        <mxCell id="fhPOaMHas8F5NW810UET-118" value="" style="endArrow=none;html=1;rounded=0;" edge="1" parent="1" source="fhPOaMHas8F5NW810UET-23" target="fhPOaMHas8F5NW810UET-116">
          <mxGeometry relative="1" as="geometry">
            <mxPoint x="902" y="810" as="sourcePoint" />
            <mxPoint x="903" y="710" as="targetPoint" />
          </mxGeometry>
        </mxCell>
        <mxCell id="fhPOaMHas8F5NW810UET-120" value="1" style="edgeLabel;html=1;align=center;verticalAlign=middle;resizable=0;points=[];fontSize=16;labelBackgroundColor=none;spacingTop=-26;" vertex="1" connectable="0" parent="fhPOaMHas8F5NW810UET-118">
          <mxGeometry x="0.0944" y="2" relative="1" as="geometry">
            <mxPoint as="offset" />
          </mxGeometry>
        </mxCell>
        <mxCell id="fhPOaMHas8F5NW810UET-123" value="idItem (FK)" style="ellipse;whiteSpace=wrap;html=1;align=center;" vertex="1" parent="1">
          <mxGeometry x="971" y="800" width="100" height="40" as="geometry" />
        </mxCell>
        <mxCell id="fhPOaMHas8F5NW810UET-124" value="qtdItens" style="ellipse;whiteSpace=wrap;html=1;align=center;" vertex="1" parent="1">
          <mxGeometry x="971" y="860" width="100" height="40" as="geometry" />
        </mxCell>
        <mxCell id="fhPOaMHas8F5NW810UET-125" value="" style="endArrow=none;html=1;rounded=0;" edge="1" parent="1" source="fhPOaMHas8F5NW810UET-123" target="fhPOaMHas8F5NW810UET-94">
          <mxGeometry relative="1" as="geometry">
            <mxPoint x="997" y="785" as="sourcePoint" />
            <mxPoint x="924" y="816" as="targetPoint" />
          </mxGeometry>
        </mxCell>
        <mxCell id="fhPOaMHas8F5NW810UET-126" value="" style="endArrow=none;html=1;rounded=0;" edge="1" parent="1" source="fhPOaMHas8F5NW810UET-124" target="fhPOaMHas8F5NW810UET-94">
          <mxGeometry relative="1" as="geometry">
            <mxPoint x="1007" y="795" as="sourcePoint" />
            <mxPoint x="934" y="826" as="targetPoint" />
          </mxGeometry>
        </mxCell>
      </root>
    </mxGraphModel>
  </diagram>
</mxfile>
